<mxfile host="app.diagrams.net" modified="2022-05-03T19:16:04.303Z" agent="5.0 (Macintosh; Intel Mac OS X 10_15_7) AppleWebKit/537.36 (KHTML, like Gecko) Chrome/100.0.4896.127 Safari/537.36" etag="KcWi4PUUCFwHtXGPBl7c" version="17.5.0" type="github">
  <diagram id="qdcSI4XLHriADropfaJg" name="Page-1">
    <mxGraphModel dx="1668" dy="887" grid="1" gridSize="10" guides="1" tooltips="1" connect="1" arrows="1" fold="1" page="1" pageScale="1" pageWidth="1169" pageHeight="827" math="0" shadow="0">
      <root>
        <mxCell id="0" />
        <mxCell id="1" parent="0" />
        <mxCell id="5tFJcDNnFkH1cMBp-JyV-1" value="" style="rounded=1;whiteSpace=wrap;html=1;fillColor=#dae8fc;strokeColor=#6c8ebf;" vertex="1" parent="1">
          <mxGeometry x="40" y="528.125" width="243.75" height="84.375" as="geometry" />
        </mxCell>
        <mxCell id="5tFJcDNnFkH1cMBp-JyV-2" value="&lt;font style=&quot;font-size: 10px&quot;&gt;Drive&lt;br style=&quot;font-size: 10px&quot;&gt;1&lt;/font&gt;" style="rounded=1;whiteSpace=wrap;html=1;fontSize=10;" vertex="1" parent="1">
          <mxGeometry x="58.75" y="539.84375" width="28.125" height="60.9375" as="geometry" />
        </mxCell>
        <mxCell id="5tFJcDNnFkH1cMBp-JyV-3" value="Drive&lt;br style=&quot;font-size: 10px;&quot;&gt;2" style="rounded=1;whiteSpace=wrap;html=1;fontSize=10;" vertex="1" parent="1">
          <mxGeometry x="96.25" y="539.84375" width="28.125" height="60.9375" as="geometry" />
        </mxCell>
        <mxCell id="5tFJcDNnFkH1cMBp-JyV-4" value="Drive&lt;br style=&quot;font-size: 10px;&quot;&gt;3" style="rounded=1;whiteSpace=wrap;html=1;fontSize=10;" vertex="1" parent="1">
          <mxGeometry x="133.75" y="539.84375" width="28.125" height="60.9375" as="geometry" />
        </mxCell>
        <mxCell id="5tFJcDNnFkH1cMBp-JyV-5" value="Drive&lt;br style=&quot;font-size: 10px;&quot;&gt;4" style="rounded=1;whiteSpace=wrap;html=1;fontSize=10;" vertex="1" parent="1">
          <mxGeometry x="171.25" y="539.84375" width="28.125" height="60.9375" as="geometry" />
        </mxCell>
        <mxCell id="5tFJcDNnFkH1cMBp-JyV-6" value="Drive&lt;br style=&quot;font-size: 10px;&quot;&gt;n" style="rounded=1;whiteSpace=wrap;html=1;fontSize=10;" vertex="1" parent="1">
          <mxGeometry x="236.875" y="539.84375" width="28.125" height="60.9375" as="geometry" />
        </mxCell>
        <mxCell id="5tFJcDNnFkH1cMBp-JyV-7" value="&lt;font style=&quot;font-size: 20px&quot;&gt;...&lt;/font&gt;" style="text;html=1;strokeColor=none;fillColor=none;align=center;verticalAlign=middle;whiteSpace=wrap;rounded=0;" vertex="1" parent="1">
          <mxGeometry x="190" y="556.25" width="56.25" height="28.125" as="geometry" />
        </mxCell>
        <mxCell id="5tFJcDNnFkH1cMBp-JyV-9" value="Server 1" style="text;html=1;strokeColor=none;fillColor=none;align=center;verticalAlign=middle;whiteSpace=wrap;rounded=0;fontSize=20;" vertex="1" parent="1">
          <mxGeometry x="119.06" y="621.88" width="85.63" height="28.13" as="geometry" />
        </mxCell>
        <mxCell id="5tFJcDNnFkH1cMBp-JyV-10" value="" style="rounded=1;whiteSpace=wrap;html=1;fillColor=#dae8fc;strokeColor=#6c8ebf;" vertex="1" parent="1">
          <mxGeometry x="330.625" y="528.125" width="243.75" height="84.375" as="geometry" />
        </mxCell>
        <mxCell id="5tFJcDNnFkH1cMBp-JyV-11" value="Drive&lt;br style=&quot;font-size: 10px;&quot;&gt;1" style="rounded=1;whiteSpace=wrap;html=1;fontSize=10;" vertex="1" parent="1">
          <mxGeometry x="349.375" y="539.84375" width="28.125" height="60.9375" as="geometry" />
        </mxCell>
        <mxCell id="5tFJcDNnFkH1cMBp-JyV-12" value="Drive&lt;br style=&quot;font-size: 10px;&quot;&gt;2" style="rounded=1;whiteSpace=wrap;html=1;fontSize=10;" vertex="1" parent="1">
          <mxGeometry x="386.875" y="539.84375" width="28.125" height="60.9375" as="geometry" />
        </mxCell>
        <mxCell id="5tFJcDNnFkH1cMBp-JyV-13" value="Drive&lt;br style=&quot;font-size: 10px;&quot;&gt;3" style="rounded=1;whiteSpace=wrap;html=1;fontSize=10;" vertex="1" parent="1">
          <mxGeometry x="424.375" y="539.84375" width="28.125" height="60.9375" as="geometry" />
        </mxCell>
        <mxCell id="5tFJcDNnFkH1cMBp-JyV-14" value="Drive&lt;br style=&quot;font-size: 10px;&quot;&gt;4" style="rounded=1;whiteSpace=wrap;html=1;fontSize=10;" vertex="1" parent="1">
          <mxGeometry x="461.875" y="539.84375" width="28.125" height="60.9375" as="geometry" />
        </mxCell>
        <mxCell id="5tFJcDNnFkH1cMBp-JyV-15" value="Drive&lt;br style=&quot;font-size: 10px;&quot;&gt;n" style="rounded=1;whiteSpace=wrap;html=1;fontSize=10;" vertex="1" parent="1">
          <mxGeometry x="527.5" y="539.84375" width="28.125" height="60.9375" as="geometry" />
        </mxCell>
        <mxCell id="5tFJcDNnFkH1cMBp-JyV-16" value="&lt;font style=&quot;font-size: 20px&quot;&gt;...&lt;/font&gt;" style="text;html=1;strokeColor=none;fillColor=none;align=center;verticalAlign=middle;whiteSpace=wrap;rounded=0;" vertex="1" parent="1">
          <mxGeometry x="480.625" y="556.25" width="56.25" height="28.125" as="geometry" />
        </mxCell>
        <mxCell id="5tFJcDNnFkH1cMBp-JyV-17" value="Server 2" style="text;html=1;strokeColor=none;fillColor=none;align=center;verticalAlign=middle;whiteSpace=wrap;rounded=0;fontSize=20;" vertex="1" parent="1">
          <mxGeometry x="410.31" y="621.875" width="84.375" height="28.125" as="geometry" />
        </mxCell>
        <mxCell id="5tFJcDNnFkH1cMBp-JyV-18" value="" style="rounded=1;whiteSpace=wrap;html=1;fillColor=#dae8fc;strokeColor=#6c8ebf;" vertex="1" parent="1">
          <mxGeometry x="950" y="528.115" width="243.75" height="84.375" as="geometry" />
        </mxCell>
        <mxCell id="5tFJcDNnFkH1cMBp-JyV-19" value="Drive&lt;br style=&quot;font-size: 10px;&quot;&gt;1" style="rounded=1;whiteSpace=wrap;html=1;fontSize=10;" vertex="1" parent="1">
          <mxGeometry x="968.75" y="539.83375" width="28.125" height="60.9375" as="geometry" />
        </mxCell>
        <mxCell id="5tFJcDNnFkH1cMBp-JyV-20" value="Drive&lt;br style=&quot;font-size: 10px;&quot;&gt;2" style="rounded=1;whiteSpace=wrap;html=1;fontSize=10;" vertex="1" parent="1">
          <mxGeometry x="1006.25" y="539.83375" width="28.125" height="60.9375" as="geometry" />
        </mxCell>
        <mxCell id="5tFJcDNnFkH1cMBp-JyV-21" value="Drive&lt;br style=&quot;font-size: 10px;&quot;&gt;3" style="rounded=1;whiteSpace=wrap;html=1;fontSize=10;" vertex="1" parent="1">
          <mxGeometry x="1043.75" y="539.83375" width="28.125" height="60.9375" as="geometry" />
        </mxCell>
        <mxCell id="5tFJcDNnFkH1cMBp-JyV-22" value="Drive&lt;br style=&quot;font-size: 10px;&quot;&gt;4" style="rounded=1;whiteSpace=wrap;html=1;fontSize=10;" vertex="1" parent="1">
          <mxGeometry x="1081.25" y="539.83375" width="28.125" height="60.9375" as="geometry" />
        </mxCell>
        <mxCell id="5tFJcDNnFkH1cMBp-JyV-23" value="Drive&lt;br style=&quot;font-size: 10px;&quot;&gt;n" style="rounded=1;whiteSpace=wrap;html=1;fontSize=10;" vertex="1" parent="1">
          <mxGeometry x="1146.875" y="539.83375" width="28.125" height="60.9375" as="geometry" />
        </mxCell>
        <mxCell id="5tFJcDNnFkH1cMBp-JyV-24" value="&lt;font style=&quot;font-size: 20px&quot;&gt;...&lt;/font&gt;" style="text;html=1;strokeColor=none;fillColor=none;align=center;verticalAlign=middle;whiteSpace=wrap;rounded=0;" vertex="1" parent="1">
          <mxGeometry x="1100" y="556.24" width="56.25" height="28.125" as="geometry" />
        </mxCell>
        <mxCell id="5tFJcDNnFkH1cMBp-JyV-25" value="Server n" style="text;html=1;strokeColor=none;fillColor=none;align=center;verticalAlign=middle;whiteSpace=wrap;rounded=0;fontSize=20;" vertex="1" parent="1">
          <mxGeometry x="1034.37" y="621.87" width="79.38" height="28.13" as="geometry" />
        </mxCell>
        <mxCell id="5tFJcDNnFkH1cMBp-JyV-26" value="&lt;font style=&quot;font-size: 28px&quot;&gt;...&lt;/font&gt;" style="text;html=1;strokeColor=none;fillColor=none;align=center;verticalAlign=middle;whiteSpace=wrap;rounded=0;fontSize=20;" vertex="1" parent="1">
          <mxGeometry x="880" y="556.245" width="56.25" height="28.125" as="geometry" />
        </mxCell>
        <mxCell id="5tFJcDNnFkH1cMBp-JyV-42" style="rounded=0;orthogonalLoop=1;jettySize=auto;html=1;exitX=0.5;exitY=1;exitDx=0;exitDy=0;entryX=0.5;entryY=0;entryDx=0;entryDy=0;fontSize=10;fillColor=#dae8fc;strokeColor=#6c8ebf;strokeWidth=2;edgeStyle=orthogonalEdgeStyle;curved=1;" edge="1" parent="1" source="5tFJcDNnFkH1cMBp-JyV-27" target="5tFJcDNnFkH1cMBp-JyV-2">
          <mxGeometry relative="1" as="geometry" />
        </mxCell>
        <mxCell id="5tFJcDNnFkH1cMBp-JyV-44" style="shape=connector;rounded=0;orthogonalLoop=1;jettySize=auto;html=1;exitX=0.5;exitY=1;exitDx=0;exitDy=0;entryX=0.5;entryY=0;entryDx=0;entryDy=0;labelBackgroundColor=default;fontFamily=Helvetica;fontSize=10;fontColor=default;endArrow=classic;strokeColor=#6c8ebf;fillColor=#dae8fc;strokeWidth=2;edgeStyle=orthogonalEdgeStyle;curved=1;" edge="1" parent="1" source="5tFJcDNnFkH1cMBp-JyV-27" target="5tFJcDNnFkH1cMBp-JyV-21">
          <mxGeometry relative="1" as="geometry" />
        </mxCell>
        <mxCell id="5tFJcDNnFkH1cMBp-JyV-27" value="Set 1" style="rounded=1;whiteSpace=wrap;html=1;fontSize=24;fillColor=#dae8fc;strokeColor=#6c8ebf;" vertex="1" parent="1">
          <mxGeometry x="138.4375" y="350" width="112.5" height="56.25" as="geometry" />
        </mxCell>
        <mxCell id="5tFJcDNnFkH1cMBp-JyV-53" style="edgeStyle=orthogonalEdgeStyle;shape=connector;rounded=0;orthogonalLoop=1;jettySize=auto;html=1;exitX=0.5;exitY=1;exitDx=0;exitDy=0;entryX=0.5;entryY=0;entryDx=0;entryDy=0;labelBackgroundColor=default;fontFamily=Helvetica;fontSize=10;fontColor=default;endArrow=classic;strokeColor=#82b366;strokeWidth=2;fillColor=#d5e8d4;curved=1;" edge="1" parent="1" source="5tFJcDNnFkH1cMBp-JyV-28" target="5tFJcDNnFkH1cMBp-JyV-36">
          <mxGeometry relative="1" as="geometry" />
        </mxCell>
        <mxCell id="5tFJcDNnFkH1cMBp-JyV-54" style="edgeStyle=orthogonalEdgeStyle;shape=connector;curved=1;rounded=0;orthogonalLoop=1;jettySize=auto;html=1;exitX=0.5;exitY=1;exitDx=0;exitDy=0;entryX=0.5;entryY=0;entryDx=0;entryDy=0;labelBackgroundColor=default;fontFamily=Helvetica;fontSize=10;fontColor=default;endArrow=classic;strokeColor=#82b366;strokeWidth=2;fillColor=#d5e8d4;" edge="1" parent="1" source="5tFJcDNnFkH1cMBp-JyV-28" target="5tFJcDNnFkH1cMBp-JyV-22">
          <mxGeometry relative="1" as="geometry" />
        </mxCell>
        <mxCell id="5tFJcDNnFkH1cMBp-JyV-28" value="Set n" style="rounded=1;whiteSpace=wrap;html=1;fontSize=24;fillColor=#dae8fc;strokeColor=#6c8ebf;" vertex="1" parent="1">
          <mxGeometry x="936.25" y="350" width="112.5" height="56.25" as="geometry" />
        </mxCell>
        <mxCell id="5tFJcDNnFkH1cMBp-JyV-47" style="edgeStyle=orthogonalEdgeStyle;shape=connector;curved=1;rounded=0;orthogonalLoop=1;jettySize=auto;html=1;exitX=0.5;exitY=1;exitDx=0;exitDy=0;labelBackgroundColor=default;fontFamily=Helvetica;fontSize=10;fontColor=default;endArrow=classic;strokeColor=#d79b00;strokeWidth=2;fillColor=#ffe6cc;" edge="1" parent="1" source="5tFJcDNnFkH1cMBp-JyV-29" target="5tFJcDNnFkH1cMBp-JyV-4">
          <mxGeometry relative="1" as="geometry" />
        </mxCell>
        <mxCell id="5tFJcDNnFkH1cMBp-JyV-29" value="Set 2" style="rounded=1;whiteSpace=wrap;html=1;fontSize=24;fillColor=#dae8fc;strokeColor=#6c8ebf;" vertex="1" parent="1">
          <mxGeometry x="382.18" y="350" width="112.5" height="56.25" as="geometry" />
        </mxCell>
        <mxCell id="5tFJcDNnFkH1cMBp-JyV-32" value="" style="rounded=1;whiteSpace=wrap;html=1;fillColor=#dae8fc;strokeColor=#6c8ebf;" vertex="1" parent="1">
          <mxGeometry x="620.005" y="528.125" width="243.75" height="84.375" as="geometry" />
        </mxCell>
        <mxCell id="5tFJcDNnFkH1cMBp-JyV-33" value="Drive&lt;br style=&quot;font-size: 10px;&quot;&gt;1" style="rounded=1;whiteSpace=wrap;html=1;fontSize=10;" vertex="1" parent="1">
          <mxGeometry x="638.755" y="539.84375" width="28.125" height="60.9375" as="geometry" />
        </mxCell>
        <mxCell id="5tFJcDNnFkH1cMBp-JyV-34" value="Drive&lt;br style=&quot;font-size: 10px;&quot;&gt;2" style="rounded=1;whiteSpace=wrap;html=1;fontSize=10;" vertex="1" parent="1">
          <mxGeometry x="676.255" y="539.84375" width="28.125" height="60.9375" as="geometry" />
        </mxCell>
        <mxCell id="5tFJcDNnFkH1cMBp-JyV-35" value="Drive&lt;br style=&quot;font-size: 10px;&quot;&gt;3" style="rounded=1;whiteSpace=wrap;html=1;fontSize=10;" vertex="1" parent="1">
          <mxGeometry x="713.755" y="539.84375" width="28.125" height="60.9375" as="geometry" />
        </mxCell>
        <mxCell id="5tFJcDNnFkH1cMBp-JyV-36" value="Drive&lt;br style=&quot;font-size: 10px;&quot;&gt;4" style="rounded=1;whiteSpace=wrap;html=1;fontSize=10;" vertex="1" parent="1">
          <mxGeometry x="751.255" y="539.84375" width="28.125" height="60.9375" as="geometry" />
        </mxCell>
        <mxCell id="5tFJcDNnFkH1cMBp-JyV-37" value="Drive&lt;br style=&quot;font-size: 10px;&quot;&gt;n" style="rounded=1;whiteSpace=wrap;html=1;fontSize=10;" vertex="1" parent="1">
          <mxGeometry x="816.88" y="539.84375" width="28.125" height="60.9375" as="geometry" />
        </mxCell>
        <mxCell id="5tFJcDNnFkH1cMBp-JyV-38" value="&lt;font style=&quot;font-size: 20px&quot;&gt;...&lt;/font&gt;" style="text;html=1;strokeColor=none;fillColor=none;align=center;verticalAlign=middle;whiteSpace=wrap;rounded=0;" vertex="1" parent="1">
          <mxGeometry x="770.005" y="556.25" width="56.25" height="28.125" as="geometry" />
        </mxCell>
        <mxCell id="5tFJcDNnFkH1cMBp-JyV-39" value="Server 3" style="text;html=1;strokeColor=none;fillColor=none;align=center;verticalAlign=middle;whiteSpace=wrap;rounded=0;fontSize=20;" vertex="1" parent="1">
          <mxGeometry x="699.69" y="621.875" width="84.375" height="28.125" as="geometry" />
        </mxCell>
        <mxCell id="5tFJcDNnFkH1cMBp-JyV-50" style="edgeStyle=orthogonalEdgeStyle;shape=connector;curved=1;rounded=0;orthogonalLoop=1;jettySize=auto;html=1;exitX=0.5;exitY=1;exitDx=0;exitDy=0;labelBackgroundColor=default;fontFamily=Helvetica;fontSize=10;fontColor=default;endArrow=classic;strokeColor=#b85450;strokeWidth=2;fillColor=#f8cecc;" edge="1" parent="1" source="5tFJcDNnFkH1cMBp-JyV-40" target="5tFJcDNnFkH1cMBp-JyV-13">
          <mxGeometry relative="1" as="geometry" />
        </mxCell>
        <mxCell id="5tFJcDNnFkH1cMBp-JyV-51" style="edgeStyle=orthogonalEdgeStyle;shape=connector;curved=1;rounded=0;orthogonalLoop=1;jettySize=auto;html=1;exitX=0.5;exitY=1;exitDx=0;exitDy=0;labelBackgroundColor=default;fontFamily=Helvetica;fontSize=10;fontColor=default;endArrow=classic;strokeColor=#b85450;strokeWidth=2;fillColor=#f8cecc;" edge="1" parent="1" source="5tFJcDNnFkH1cMBp-JyV-40" target="5tFJcDNnFkH1cMBp-JyV-37">
          <mxGeometry relative="1" as="geometry" />
        </mxCell>
        <mxCell id="5tFJcDNnFkH1cMBp-JyV-40" value="Set 3" style="rounded=1;whiteSpace=wrap;html=1;fontSize=24;fillColor=#dae8fc;strokeColor=#6c8ebf;" vertex="1" parent="1">
          <mxGeometry x="629.38" y="350" width="112.5" height="56.25" as="geometry" />
        </mxCell>
        <mxCell id="5tFJcDNnFkH1cMBp-JyV-41" value="&lt;font style=&quot;font-size: 28px&quot;&gt;...&lt;/font&gt;" style="text;html=1;strokeColor=none;fillColor=none;align=center;verticalAlign=middle;whiteSpace=wrap;rounded=0;fontSize=20;" vertex="1" parent="1">
          <mxGeometry x="816.88" y="364.065" width="56.25" height="28.125" as="geometry" />
        </mxCell>
        <mxCell id="5tFJcDNnFkH1cMBp-JyV-49" style="edgeStyle=orthogonalEdgeStyle;shape=connector;curved=1;rounded=0;orthogonalLoop=1;jettySize=auto;html=1;exitX=0.5;exitY=1;exitDx=0;exitDy=0;labelBackgroundColor=default;fontFamily=Helvetica;fontSize=10;fontColor=default;endArrow=classic;strokeColor=#d79b00;strokeWidth=2;fillColor=#ffe6cc;" edge="1" parent="1" source="5tFJcDNnFkH1cMBp-JyV-29" target="5tFJcDNnFkH1cMBp-JyV-34">
          <mxGeometry relative="1" as="geometry" />
        </mxCell>
        <mxCell id="5tFJcDNnFkH1cMBp-JyV-55" value="Object" style="ellipse;whiteSpace=wrap;html=1;aspect=fixed;fontFamily=Helvetica;fontSize=24;fillColor=#dae8fc;strokeColor=#6c8ebf;" vertex="1" parent="1">
          <mxGeometry x="536.87" y="100" width="100" height="100" as="geometry" />
        </mxCell>
        <mxCell id="5tFJcDNnFkH1cMBp-JyV-61" value="" style="shape=flexArrow;endArrow=classic;html=1;rounded=0;labelBackgroundColor=default;fontFamily=Helvetica;fontSize=24;fontColor=default;strokeColor=#6c8ebf;strokeWidth=0;fillColor=#dae8fc;curved=1;endSize=12;startSize=12;width=21.333333333333332;startArrow=none;" edge="1" parent="1" source="5tFJcDNnFkH1cMBp-JyV-62">
          <mxGeometry width="50" height="50" relative="1" as="geometry">
            <mxPoint x="585" y="220" as="sourcePoint" />
            <mxPoint x="585.2" y="330" as="targetPoint" />
          </mxGeometry>
        </mxCell>
        <mxCell id="5tFJcDNnFkH1cMBp-JyV-62" value="Hash" style="text;html=1;strokeColor=none;fillColor=none;align=center;verticalAlign=middle;whiteSpace=wrap;rounded=0;fontFamily=Helvetica;fontSize=24;fontColor=default;" vertex="1" parent="1">
          <mxGeometry x="555.63" y="240" width="60" height="30" as="geometry" />
        </mxCell>
        <mxCell id="5tFJcDNnFkH1cMBp-JyV-63" value="" style="shape=flexArrow;endArrow=none;html=1;rounded=0;labelBackgroundColor=default;fontFamily=Helvetica;fontSize=24;fontColor=default;strokeColor=#6c8ebf;strokeWidth=0;fillColor=#dae8fc;curved=1;endSize=12;startSize=12;width=21.333333333333332;" edge="1" parent="1" target="5tFJcDNnFkH1cMBp-JyV-62">
          <mxGeometry width="50" height="50" relative="1" as="geometry">
            <mxPoint x="585" y="220" as="sourcePoint" />
            <mxPoint x="585.2" y="330.0000000000001" as="targetPoint" />
          </mxGeometry>
        </mxCell>
      </root>
    </mxGraphModel>
  </diagram>
</mxfile>
